<svg xmlns="http://www.w3.org/2000/svg" xmlns:xlink="http://www.w3.org/1999/xlink" version="1.1" id="Layer_1" x="0px" y="0px" enable-background="new 0 0 1024 1024" xml:space="preserve" viewBox="174.68 146.26 677.56 728.27">
<path fill="#000014" opacity="1.000000" stroke="none" d=" M636.010376,668.416992   C625.857727,668.686707 616.203674,668.998535 606.547119,669.186951   C604.577393,669.225403 602.554321,668.992188 600.633362,668.548462   C596.795166,667.661804 595.339905,664.856201 597.773193,661.908752   C603.782593,654.629517 600.457764,649.100281 595.717285,642.975464   C559.421570,596.080750 523.291748,549.057495 487.080566,502.097260   C485.257385,499.732849 483.403870,497.287476 481.136292,495.391998   C476.502075,491.518250 470.892731,493.107727 468.553528,498.700867   C467.645691,500.871643 467.326416,503.146942 467.326691,505.525940   C467.330719,543.519226 467.429199,581.513489 467.165527,619.505127   C467.094574,629.726501 471.595795,636.176880 480.693848,640.006897   C485.905060,642.200684 491.216614,644.224365 496.215363,646.836792   C501.992737,649.856079 503.947784,655.290405 502.462769,661.658020   C501.660553,665.097900 499.183502,666.099670 496.212891,666.304688   C474.413422,667.809326 452.577087,667.039062 430.756989,667.308655   C427.092743,667.353882 425.590057,664.808655 423.987793,662.228149   C412.737183,644.107971 402.180542,625.584106 392.145203,606.771912   C379.447906,582.969543 362.764099,561.918640 346.234558,540.840271   C340.953125,534.105530 339.075623,527.426819 339.065369,519.418701   C338.980621,453.264313 338.815857,387.110016 338.677124,320.955719   C338.646759,306.470856 335.276794,301.496124 321.871643,296.010681   C319.102448,294.877441 316.318909,293.723755 313.702271,292.287537   C310.549805,290.557190 308.132172,288.100189 307.446655,284.323059   C305.146881,271.651611 305.522919,258.903381 305.858124,245.257416   C311.562073,247.448212 316.629089,249.345886 321.659943,251.335114   C341.784943,259.292755 361.920319,267.225098 382.002899,275.288788   C387.668945,277.563873 392.962402,276.954773 398.426483,274.621552   C420.170166,265.336731 441.965912,256.173676 463.751160,246.986389   C464.789886,246.548340 465.912781,246.309784 467.244019,245.902603   C468.789459,248.351883 468.269073,250.900238 468.087402,253.254959   C466.752075,270.562958 467.502014,287.895386 467.369629,305.215454   C467.193878,328.210083 467.407196,351.210388 466.968719,374.199005   C466.771912,384.518494 466.323669,394.837067 466.328644,405.165192   C466.330414,408.857574 465.854950,412.931335 470.059509,414.659149   C474.292999,416.398834 476.904999,412.984436 479.428406,410.478088   C496.215881,393.804382 512.863464,376.989838 529.642822,360.307953   C554.811157,335.285889 580.072754,310.357727 605.242981,285.337585   C611.174744,279.441193 611.146912,278.957153 605.945679,272.641876   C603.852844,270.100800 602.885864,267.437561 604.412354,264.380524   C606.075378,261.050201 609.228088,260.671478 612.518494,260.648499   C649.670044,260.389160 686.812988,259.200836 723.970947,259.609253   C726.970032,259.642242 729.969727,259.620667 732.969177,259.624542   C735.342285,259.627594 737.889465,259.578644 738.941406,262.218933   C740.013611,264.910187 739.303833,267.473480 737.326172,269.604675   C736.308350,270.701477 735.329773,271.908966 734.107849,272.730865   C712.560486,287.224121 696.290161,307.284149 678.441895,325.646576   C648.365540,356.589478 618.359497,387.606049 589.354553,419.567993   C587.677185,421.416382 586.100098,423.356537 584.492981,425.268005   C576.251038,435.070740 576.928345,432.337646 584.076538,441.987518   C618.878357,488.969147 653.733826,535.913147 689.697205,582.018188   C699.429749,594.495239 709.569580,606.654297 719.323730,619.114929   C730.947388,633.963806 745.544800,644.524292 763.368713,650.667908   C768.096191,652.297302 772.050598,654.825989 773.754639,659.950073   C775.697083,665.790955 774.051880,668.795044 767.896729,669.003479   C759.411133,669.290833 750.906433,669.029907 742.409973,668.979797   C711.439941,668.797119 680.469971,668.601440 649.499939,668.419128   C645.169434,668.393677 640.838684,668.415527 636.010376,668.416992  z"/>
<path fill="#000014" opacity="1.000000" stroke="none" d=" M782.010742,686.698242   C784.589294,687.347778 786.286377,688.620667 787.510986,690.514465   C798.365417,707.300354 809.218933,724.086792 820.048157,740.888916   C820.470642,741.544434 820.644592,742.359985 821.070557,743.449524   C816.460510,743.894836 812.616211,742.053040 808.678772,741.192871   C779.710876,734.864929 750.499634,733.048035 720.930176,735.182556   C683.431580,737.889343 647.285339,746.080627 612.835815,761.169922   C574.867554,777.800354 541.769897,801.059082 515.947266,833.933167   C515.337524,834.709351 514.692993,835.458252 514.354065,835.869019   C512.086365,836.025269 511.501160,834.642761 510.725830,833.649231   C485.857513,801.779236 453.928802,779.161682 417.406342,762.648254   C389.492981,750.027283 360.175446,741.955994 329.937073,737.631226   C303.532196,733.854675 276.983093,733.045349 250.327087,736.010071   C235.613098,737.646606 221.205933,740.601624 206.952759,743.923767   C205.767929,742.398682 206.694214,741.404724 207.271118,740.516785   C224.616058,713.820068 240.325409,686.134888 255.660263,658.279114   C260.713440,649.100159 267.412384,646.179626 276.742737,645.694580   C299.411011,644.516296 321.534790,647.369995 343.196564,654.102417   C347.143707,655.329163 349.526123,658.253723 351.931976,661.240601   C359.142426,670.192444 366.749390,678.860718 373.448029,688.181274   C386.321167,706.092896 404.154572,717.463562 423.193329,727.411133   C426.732849,729.260437 430.299622,731.106201 434.000519,732.586914   C439.797302,734.906250 442.696289,732.938416 442.665070,726.777527   C442.609863,715.872864 439.596497,705.451660 437.187531,694.938721   C436.822601,693.346191 436.207397,691.793884 436.642609,690.148926   C438.195770,689.280334 439.356750,690.377869 440.393127,690.950500   C463.182922,703.542480 485.691833,716.534851 503.345306,736.275635   C505.794647,739.014587 508.256592,741.729248 510.109375,744.914551   C511.960114,748.096313 513.910217,748.307373 516.212463,745.375366   C535.497070,720.815552 560.645142,703.988342 588.396851,690.562317   C594.361206,687.676880 600.435364,686.497131 607.152466,686.515930   C664.144043,686.675476 721.136475,686.535828 778.128601,686.494263   C779.292358,686.493408 780.456299,686.592224 782.010742,686.698242  z"/>
<path fill="#000014" opacity="1.000000" stroke="none" d=" M652.633789,768.435547   C690.616455,757.251526 729.132446,754.240051 768.061157,755.863098   C780.971680,756.401367 793.851196,758.242981 806.492981,761.325195   C809.769043,762.123962 812.276001,763.675415 814.292969,766.274292   C826.037292,781.407837 837.799683,796.527405 849.551270,811.655396   C849.959595,812.180908 850.330566,812.736938 850.697021,813.293213   C851.709167,814.829529 852.974792,816.427368 851.704468,818.299194   C850.450562,820.146790 848.381104,819.717896 846.648560,819.334595   C840.650757,818.007507 834.687988,816.520630 828.720459,815.059387   C804.019775,809.010986 779.018616,804.813049 753.714905,802.190369   C731.949829,799.934448 710.172485,799.376404 688.429626,801.487488   C652.734253,804.953308 618.244690,813.062073 586.341492,830.176147   C580.313965,833.409607 574.594116,837.119324 569.275940,841.445068   C565.108521,844.834900 561.871643,848.366760 560.535461,854.158264   C558.407043,863.382935 551.126160,868.579834 542.425720,871.102783   C528.491760,875.143311 514.159790,874.992188 499.834534,873.787903   C494.203552,873.314575 488.592682,872.592163 483.259064,870.559753   C473.982452,867.024658 467.166077,861.265869 465.612793,850.819946   C465.185455,847.945923 463.116547,846.191589 461.190887,844.370178   C446.668243,830.633301 428.663422,823.136719 410.281586,816.563354   C386.057068,807.900696 360.949036,803.336731 335.312531,801.259399   C289.328308,797.533325 244.456558,804.553650 199.875229,814.691223   C193.558502,816.127625 187.306595,817.853882 180.977295,819.227600   C178.982178,819.660645 176.425980,820.465881 175.092209,818.041992   C173.971649,816.005554 175.367676,814.219788 176.614716,812.612000   C188.556396,797.215942 200.536560,781.849548 212.426361,766.413513   C216.164856,761.559998 221.687531,760.807129 227.030746,759.755005   C249.870514,755.257812 273.042297,754.416199 296.118469,755.851196   C357.775116,759.685303 415.382660,775.808655 465.048279,814.480469   C476.279266,823.225464 486.103668,833.398987 495.055206,844.422668   C496.757172,846.518616 498.503540,847.873596 501.341858,847.636230   C509.477386,846.955811 517.619141,846.637085 525.764832,847.581665   C527.693787,847.805298 529.242554,847.188293 530.551636,845.556030   C561.258545,807.267700 601.780273,784.169861 647.942383,769.827026   C649.371521,769.382935 650.813843,768.981140 652.633789,768.435547  z"/>
<path fill="#00000" opacity="1.000000" stroke="none" d=" M290.385681,226.744049   C287.823914,226.033524 285.944519,224.294678 283.333771,224.673584   C281.458160,226.811783 282.408661,229.426498 282.318298,231.796707   C282.140686,236.454010 282.428497,241.130371 282.215210,245.784714   C281.967682,251.186798 282.198883,255.783630 287.186096,259.813873   C292.064362,263.756073 291.761749,271.793823 287.589355,277.142456   C285.762054,279.484863 285.467407,281.514771 285.935120,284.426117   C287.907837,296.706177 289.465332,309.052704 291.197784,321.371704   C291.704437,324.974518 290.094788,326.862030 286.556580,326.827026   C279.567657,326.757874 272.579865,326.530182 265.592896,326.324188   C262.795441,326.241730 261.785614,324.542999 262.119293,321.978821   C263.746155,309.477600 265.301727,296.964905 267.163330,284.498199   C267.585327,281.672424 267.467529,279.444580 265.811951,277.019104   C260.917725,269.848877 261.733612,263.508911 268.256683,257.528412   C269.869873,256.049408 270.699799,254.583176 270.681061,252.390961   C270.602753,243.230148 270.593140,234.068130 270.647552,224.907089   C270.671967,220.802322 269.396973,217.979706 265.000488,216.767639   C261.171417,215.712051 257.542847,213.932602 253.819687,212.488525   C251.094528,211.431519 248.601746,210.307617 248.664520,206.656509   C248.721863,203.321442 250.946228,202.111679 253.482803,201.035294   C272.631439,192.909515 291.770264,184.760651 310.928864,176.658539   C332.387360,167.583832 353.966248,158.783905 375.281586,149.385483   C383.900818,145.585052 391.674957,145.070450 400.591858,148.860596   C441.480774,166.240524 482.585266,183.113358 523.622559,200.143784   C526.031799,201.143631 528.199219,202.194199 528.289978,205.279404   C528.395386,208.864059 525.853638,210.073776 523.151550,211.173096   C490.479645,224.465378 457.805603,237.752319 425.136719,251.051956   C415.736084,254.878998 406.285004,258.592468 396.981201,262.643127   C391.089325,265.208313 385.575409,265.019653 379.653473,262.616089   C350.057617,250.603775 320.380341,238.791992 290.385681,226.744049  z"/>
<path fill="#ead409" opacity="1.000000" stroke="none" d=" M787.308228,408.026123   C787.060425,409.426392 786.781860,410.391113 786.640076,411.375549   C786.210754,414.355621 786.122620,417.735901 782.633545,418.771881   C779.093567,419.822968 777.355286,416.610596 775.241943,414.654541   C772.187744,411.827698 769.143127,408.961639 766.376709,405.860504   C763.190308,402.288605 760.765259,401.984650 757.153564,405.765747   C746.917297,416.482269 736.299316,426.836395 725.761047,437.261841   C703.439270,459.344543 678.613586,478.414215 653.430908,497.032898   C646.310303,502.297516 642.347839,501.423340 637.196838,494.195129   C628.453430,481.925812 628.350586,481.524445 639.737366,471.358368   C662.969238,450.617035 686.621826,430.337952 708.502808,408.129791   C717.386475,399.113251 726.168457,389.994934 735.149536,381.076874   C737.593689,378.649872 737.810547,376.937653 735.167053,374.582916   C731.190735,371.041016 727.390747,367.294464 723.619202,363.531281   C719.544861,359.465942 720.099304,356.392273 725.445068,354.746765   C747.212341,348.046387 768.962952,341.276062 790.856873,335.010773   C800.257019,332.320740 802.331970,336.569794 800.665466,343.776642   C795.770325,364.946167 791.720642,386.311157 787.308228,408.026123  z"/>
<path fill="#ead409" opacity="1.000000" stroke="none" d=" M747.122070,628.964478   C737.609375,621.306030 729.288696,612.921021 721.175110,604.309082   C718.059875,601.002502 716.543335,597.393066 716.558472,592.679565   C716.686646,552.716797 716.668945,512.753174 716.502319,472.790558   C716.483643,468.311615 718.010071,465.394440 721.458923,462.677979   C732.183960,454.230438 742.575928,445.377136 752.342651,435.810150   C754.182434,434.008087 755.902771,431.862213 758.473389,431.268738   C760.942200,433.041931 760.316772,435.378693 760.317810,437.454956   C760.348206,500.563934 760.348328,563.672913 760.327698,626.781921   C760.326904,629.210449 761.017029,632.041321 758.361816,633.579407   C755.527466,635.221313 753.317810,633.007507 751.047852,631.809570   C749.737366,631.117920 748.613525,630.072815 747.122070,628.964478  z"/>
<path fill="#000014" opacity="1.000000" stroke="none" d=" M289.632446,584.343628   C280.475525,571.620056 270.731262,559.750916 262.814789,546.586548   C261.702362,544.736694 260.623352,542.831726 259.824799,540.833984   C255.601089,530.267212 256.797516,525.718018 265.912018,518.912964   C274.186188,512.735291 282.706390,506.886749 290.967865,500.692719   C293.985840,498.429962 296.066772,498.412384 298.456299,501.526550   C320.765717,530.601501 343.035126,559.704285 364.529633,589.393311   C367.073822,592.907410 366.124176,594.876099 362.911621,597.069214   C355.071808,602.421143 347.236084,607.802307 339.701019,613.566956   C336.207367,616.239746 334.270050,615.988525 331.733276,612.428894   C321.099396,597.507141 310.343903,582.668884 299.423187,567.955750   C291.978912,557.926331 284.213867,548.133850 276.523956,538.288818   C275.267670,536.680420 274.006287,534.542664 271.183624,535.956726   C270.403229,538.811646 272.261444,540.711487 273.684662,542.638916   C288.033600,562.071045 302.437134,581.462952 316.824005,600.867126   C318.950897,603.735779 320.708252,606.659851 319.561737,610.519043   C318.908539,612.717712 318.096100,614.629089 315.632385,615.182800   C313.112946,615.749023 311.563171,614.301086 310.213745,612.457031   C303.425751,603.180359 296.626770,593.911743 289.632446,584.343628  z"/>
<path fill="#000014" opacity="1.000000" stroke="none" d=" M360.325531,649.638306   C354.546570,642.071899 349.098572,634.700012 343.384186,627.540771   C340.816650,624.324036 340.964966,622.294800 344.525543,619.955139   C352.039093,615.017883 359.394836,609.830383 366.673370,604.549927   C370.244049,601.959473 372.450317,602.678772 374.725647,606.291504   C386.086945,624.330444 397.580444,642.286255 409.082947,660.235840   C411.597565,664.159912 414.295593,667.969360 416.991272,671.773376   C418.696777,674.180115 418.363831,675.947083 415.858734,677.573486   C409.014587,682.017334 402.198181,686.507080 395.458527,691.107117   C392.491302,693.132446 391.286804,690.981506 389.897156,689.121033   C381.623505,678.044312 373.373810,666.949646 365.105469,655.868896   C363.611542,653.866882 362.068359,651.901672 360.325531,649.638306  z"/>
<path fill="#ead409" opacity="1.000000" stroke="none" d=" M685.136963,560.816162   C676.994629,549.822388 669.063477,539.118958 661.142578,528.407898   C660.153015,527.069763 659.169312,525.722778 658.265991,524.326050   C654.333435,518.245605 654.813110,514.172363 660.479797,509.546753   C663.949341,506.714600 667.766541,504.293274 671.517822,501.824585   C678.774719,497.048920 685.411865,491.502319 691.928101,485.789124   C693.570618,484.348999 695.435303,482.872437 697.755981,483.923187   C700.113647,484.990662 699.309509,487.394623 699.312744,489.271027   C699.356262,514.425842 699.333130,539.580750 699.325989,564.735657   C699.325867,565.235413 699.347656,565.737366 699.310120,566.234558   C699.137451,568.522583 699.429871,571.265808 696.664551,572.096558   C694.216187,572.832092 692.718689,570.774597 691.376221,569.074768   C689.312439,566.461731 687.354187,563.765259 685.136963,560.816162  z"/>
<path fill="#0064fb" opacity="1.000000" stroke="none" d=" M268.324371,507.393311   C260.261169,513.348755 259.969330,513.283813 254.864044,504.674133   C247.519943,492.288910 252.080215,478.726654 264.886047,475.293182   C272.578461,473.230682 278.442810,476.580719 283.403259,482.193909   C290.957794,490.742523 290.973999,490.721954 281.880096,497.398804   C277.451172,500.650604 273.034912,503.919678 268.324371,507.393311  z"/>
<path fill="#0064fb" opacity="1.000000" stroke="none" d=" M422.439270,686.385620   C427.971619,696.906372 430.961090,707.772034 432.431580,719.312500   C431.379028,719.409546 430.793335,719.657166 430.493622,719.463135   C420.897827,713.249512 411.306274,707.028564 401.772522,700.720398   C399.127899,698.970581 399.416443,696.858093 401.816498,695.123535   C406.251404,691.918274 410.752960,688.801880 415.292816,685.746643   C417.594208,684.197937 419.966125,684.241699 422.439270,686.385620  z"/>
</svg>